<svg id="レイヤー_1_画像" data-name="レイヤー 1 画像" xmlns="http://www.w3.org/2000/svg" viewBox="0 0 64.02 64.02"><defs><style>.cls-1{fill:#fff;}</style></defs><title>logo</title><polygon class="cls-1" points="31.76 5.42 29.86 5.57 29 5.97 27.68 7.78 27.41 8.63 27.56 10.32 27.81 10.75 27.75 11.45 27.16 13.38 26 16.32 24.68 18.95 23.31 21.61 23.06 22.63 23.06 23.24 23.31 23.51 23.91 23.39 24.47 23.09 25.24 22.41 25.88 21.4 26.58 20.24 27.2 18.86 27.62 17.79 28.02 17.18 28.79 16.75 29.68 16.2 30.2 15.83 30.84 15.64 31.76 15.62 32.77 15.4 33.2 15.34 33.38 15.83 33.38 16.47 33.38 17.08 30.66 17.24 30.1 17.79 29.7 18.49 29.64 19.38 30.13 19.69 30.66 19.99 31.63 20.02 32.8 20.11 32.98 20.45 33.01 22.38 32.86 22.69 30.97 23.01 28.45 23.3 25.39 23.51 24.56 24.13 24.26 25.2 24.38 26.57 25.02 27.37 27.75 27.37 31.94 26.94 38.34 25.44 41.31 24.75 44.89 23.85 47.57 23.15 49.02 22.36 49.94 20.64 47.57 20.78 44.4 21.28 41.25 21.74 36.75 22.29 36.32 22.04 36.29 20.21 36.5 19.81 38.68 19.07 40.54 18 40.73 17.3 40.39 16.47 38.43 16.4 36.96 16.61 36.9 15.8 37.02 15.06 37.66 14.67 39.17 14.33 41.49 12.98 42.66 12.06 42.84 11.11 42.44 10.65 41.58 10.56 40.76 10.72 38.86 11.66 37.66 11.76 37.33 11.51 37.36 10.01 37.33 9.46 37.65 8.39 37.9 7.39 37.86 6.62 37.51 4.87 36.96 4.17 35.95 4.01 35.06 4.68 34.05 6.43 33.93 7.66 34.11 8.39 34.05 11.82 33.5 12.15 32.12 12.25 31.85 12.03 31.97 11.21 33.04 9.49 33.29 7.47 33.04 6.18 31.76 5.42"/><polygon class="cls-1" points="1.19 18.53 2.5 18.1 4.58 18.19 7.43 18.41 12.19 18.41 15.83 17.93 19.1 17.59 20.82 17.29 23.91 16.47 23.58 18.13 22.49 19.39 20.28 20.41 17.49 21.3 14.7 22.18 12.5 22.91 7.5 24.09 4.89 24.43 2.95 24.13 1.63 23.35 0.75 21.59 0.75 20.27 1.19 18.53"/><polygon class="cls-1" points="20.36 25.14 18.81 25.85 17.47 29.67 17.18 31.05 16.23 32.99 13.4 35.71 10.23 39.56 9.98 40.83 10.33 41.39 10.86 41.39 12.06 41.08 13.02 40.58 14.32 38.64 16.34 36.73 17.57 35.42 19.09 34.89 21.63 34.58 22.09 35.14 22.09 36.09 20.5 39.59 19.8 40.05 19.02 39.84 17.15 38.14 16.23 37.65 15.77 38.14 15.38 39.06 15.31 40.4 16.04 41.96 16.72 42.7 16.8 43.37 16.37 44.61 14.61 46.83 10.23 51.1 6.98 54.21 6.73 55.45 7.15 56.37 7.89 56.55 8.88 56.3 12.45 53.15 16.48 49.69 18.84 47.04 23.12 42.27 25.2 38.92 26.12 37.03 27.78 35.11 28.31 34.19 27.99 32.74 26.68 31.82 22.27 31.61 21.74 31.33 21.92 30.87 23.06 29.6 23.06 27.9 21.85 25.75 20.36 25.14"/><path class="cls-1" d="M33.31,32l1.59.28,2.58-.77L40.34,31l.5.39.6.53.77-.46,7.88-1.76.63.17,0,1.7-.35.78-1.1.6-1.72.35-2.48.88-.78.53.07.53.81.28.75-.14,1-.21,1,0,.6.63v1l-1,.81-1.1.67-1.56.56-1,.6-.57.85.29.46,1.06-.14,2.83-1.2.73-.14.92.53-.07.74-.49.88-.82.53-3.1,1-.6.64.38.53,1.06.18L54.79,42l1.69-.28.5.57.07.77-.74,1.06-1.21.64-1.2.6-1.8.35.67.41.78.93.28,1-.39,1.31-1.27,1.2-2.4,1.2L51,53.36l1.77.74,1.91.18,4.2-.32,2.68-.5,1-.45,2.79-3,.93-.35L65,54.31l-.92,1.13-1,.67-4.48,1.35-3.46.7H52l-2-.88L48.36,56,43.1,50.18l-1-.85-.07,4,.11.63,1.2-.46,1.13-.56.49.35-.18.71-3.07,4.2-.78.42-.67,0-.6-.57-.21-1.37.21-6.22L36.35,57.6,35,59.22l-1.23.6H31.3l-1.73-.92-.39-.56-.28-2,.46-.28,2.22.67L33,56.46l1-.63,2.19-4.91.07-1.59L36,49l-2.15.6-2.05,1.06-1.34-.14L29.36,49V47.32l.88-2.09,1.45-2-.07-.63-.32-.78.14-.56L33.65,40l3-1.52.46-.88.32-2.54L37,34.92l-2.19,1.2-1.18.42-.94-.14L32,34.92V33.51l.74-1.13Zm17,14.26-1.28.31-2.46,1v.22l1.26,1.56h.36l2.25-1.82.21-.92,1.41-.83Zm-16.7-.29,3.24-.74.42-1.07,1.07-.27.69.27,1,.37.59-.65V35.58l-1.13,4.1-.68,1.07-1,.64-1,.16-.94-.11L34,43l-1,1.78v.62l.66.53" transform="translate(-2.99 -2.99)"/><path class="cls-1" d="M35,67A32,32,0,1,1,67,35,32,32,0,0,1,35,67ZM35,7A28,28,0,1,0,63,35,28,28,0,0,0,35,7Z" transform="translate(-2.99 -2.99)"/></svg>