<svg id="レイヤー_1" data-name="レイヤー 1" xmlns="http://www.w3.org/2000/svg" viewBox="0 0 475.45 476.7"><defs><style>.cls-1{fill:#fff;fill-rule:evenodd;}</style></defs><title>search</title><path class="cls-1" d="M-155.73,303.23v-3h-1v-3h-1v-2h-1v-2l-3-2c-5.64-8-12.27-13.27-19-20l-11-12-35-34-6-7-18-17c-3.57-3.57-6.52-8.42-11-11,.31-2.25.09-2.62,1-4h1v-2h1v-2l2-1v-2l2-1c.33-1.33.67-2.67,1-4l2-1c.67-2,1.33-4,2-6h1v-2h1c.67-2,1.33-4,2-6h1v-3h1v-2h1c.33-1.33.67-2.67,1-4h1l10-34v-6h1v-5h1v-9h1v-14h1v-18h-1v-9q-1-8.5-2-17h-1v-5h-1c-.33-3-.67-6-1-9h-1c-.33-2.33-.67-4.67-1-7h-1v-3h-1v-3h-1c-.33-2-.67-4-1-6h-1c-.33-1.67-.67-3.33-1-5h-1v-2h-1v-3h-1c-.33-1.33-.67-2.67-1-4h-1v-3h-1c-.33-1.33-.67-2.67-1-4h-1c-.33-1.33-.67-2.67-1-4l-2-1c-.67-2-1.33-4-2-6l-2-1-1-4h-1c-.33-1-.67-2-1-3l-2-1v-2h-1c-.33-1-.67-2-1-3l-2-1v-2l-3-2v-2l-4-3v-2l-8-7v-2l-5-4-9-10h-2l-5-6h-2l-3-4h-2l-2-3h-2c-.33-.67-.67-1.33-1-2l-3-1v-1h-2c-.33-.67-.67-1.33-1-2l-3-1v-1l-4-1c-.33-.67-.67-1.33-1-2l-4-1c-.33-.67-.67-1.33-1-2l-4-1v-1l-4-1v-1h-3v-1h-2v-1l-6-2v-1h-3v-1h-2v-1l-6-1v-1h-2v-1l-15-3c-17.77-6-39.73-7.41-64-7-2.26,2-6.48,0-10,1v1h-6v1h-6v1h-6v1l-8,1v1l-8,1v1h-3v1h-3v1h-3v1l-6,1v1h-2v1h-3v1l-6,2v1h-2v1h-2v1h-2v1h-2v1h-2v1h-2v1h-2l-2,2h-2c-.33.67-.67,1.33-1,2h-2c-.33.67-.67,1.33-1,2h-2c-.33.67-.67,1.33-1,2h-2c-.33.67-.67,1.33-1,2h-2c-.33.67-.67,1.33-1,2h-2c-.33.67-.67,1.33-1,2h-2c-.33.67-.67,1.33-1,2l-3,1-3,4h-2l-13,14-13,12v2l-4,3v2l-4,3v2l-2,1v2l-3,2c-.33,1.33-.67,2.67-1,4l-2,1c-.33,1-.67,2-1,3h-1c-.33,1.33-.67,2.67-1,4l-2,1v2l-2,2v2h-1v2h-1v2h-1v2h-1c-.67,2-1.33,4-2,6h-1v3h-1v2h-1v3h-1v2h-1c-.33,2-.67,4-1,6h-1v3h-1v3h-1v3h-1q-1,6-2,12c-7.85,24.72-6.94,70.27,1,94v4h1v3h1v4h1v3h1v3h1v3h1v2h1v3h1v2h1v3h1c.33,1.33.67,2.67,1,4h1v3h1v2h1v2l2,1v2h1v2h1v2l2,2v2l2,1c.33,1.33.67,2.67,1,4l2,1c.33,1.33.67,2.67,1,4l2,1v2l3,2v2l3,2v2l4,3v2l6,5v2l6,5,9,10h2l7,8,3,1,2,3h2l2,3h2c.33.67.67,1.33,1,2h2c.33.67.67,1.33,1,2h2c.33.67.67,1.33,1,2h2c.33.67.67,1.33,1,2l6,2c.33.67.67,1.33,1,2h2l2,2h2v1h2v1h2v1h2v1l6,2v1h3v1l4,1v1l35,10,22,2v1h34v-1h9v-1h7v-1h5v-1h6v-1h4v-1h4v-1l7-1v-1h3v-1h3v-1h3v-1l6-1v-1l4-1v-1h3v-1l4-1v-1l5-1c.33-.67.67-1.33,1-2h2v-1h2v-1h2l2-2h2c.33-.67.67-1.33,1-2l4-1c.33-.67.67-1.33,1-2l4-1c.33-.67.67-1.33,1-2l3-1c2.6,4.48,7.43,7.43,11,11l18,19,7,6,35,36,11,10c6.93,6.93,12.68,14.39,21,20l1,2c3.24,2,20,6.22,27,4v-1l6-1v-1l4-1v-1h2c.33-.67.67-1.33,1-2h2l4-5,2-1v-2l3-2v-2h1v-2h1v-3h1v-3h1v-19Zm-148-206v6h-1v4h-1c-.33,2.33-.67,4.67-1,7h-1v2h-1c-.33,2-.67,4-1,6h-1c-.33,1.33-.67,2.67-1,4h-1v3h-1c-.33,1.33-.67,2.67-1,4h-1c-.33,1.33-.67,2.67-1,4l-2,1c-.33,1.33-.67,2.67-1,4h-1c-.33,1-.67,2-1,3l-2,1v2l-3,2v2l-3,2v2l-7,6v2l-3,2v1h-2l-6,7h-2l-2,3-3,1c-.33.67-.67,1.33-1,2l-4,1c-.33.67-.67,1.33-1,2l-4,1c-.33.67-.67,1.33-1,2l-6,2v1h-2v1l-6,2v1h-3v1h-2v1h-3v1h-3v1h-4v1h-4v1h-4v1l-13,1v1c-4.56,1.3-22.75-.07-26-1l-13-1v-1h-4v-1h-4v-1l-7-1v-1h-2v-1l-6-1v-1l-6-2v-1h-2v-1h-2l-2-2h-2v-1l-3-1c-.33-.67-.67-1.33-1-2l-4-1-2-3h-2c-.33-.67-.67-1.33-1-2h-2l-2-3h-2l-4-5-10-9v-2l-5-4v-2l-3-2v-2l-2-1v-2l-2-1v-2l-2-1c-.67-2-1.33-4-2-6h-1v-2h-1v-2h-1c-.67-2-1.33-4-2-6h-1c-.33-2-.67-4-1-6h-1v-3h-1v-2h-1v-4h-1v-4c-4.17-12.43-6.23-36.48-2-51v-6l9-27h1c.33-1.33.67-2.67,1-4h1c.33-1.33.67-2.67,1-4l2-1c.33-1.33.67-2.67,1-4l2-1v-2h1v-2l3-2v-2l2-1c.33-1,.67-2,1-3l6-5v-2l2-1,6-7h2l4-5h2l2-3h2l2-3,4-1c.33-.67.67-1.33,1-2l4-1c.33-.67.67-1.33,1-2l4-1v-1h2v-1l6-2v-1h3v-1h2v-1h3v-1h3v-1h3v-1h4v-1h4v-1h4v-1h7v-1c4.2-1.2,10.2,1.37,13-1,25,.07,43.73,5.33,60,14h2v1h2l2,2h2c.33.67.67,1.33,1,2l6,2,2,3h2l2,3h2l3,4h2l10,11,5,4v2l2,1v2l3,2v2l2,1v2l2,1c.33,1.33.67,2.67,1,4l2,1c.67,2,1.33,4,2,6h1v2h1c.67,2,1.33,4,2,6h1v3C-303.17,45.44-297.15,74.72-303.73,97.23Z" transform="translate(630.18 126.84)"/></svg>